<?xml version="1.0" standalone="no"?>
<!DOCTYPE svg PUBLIC "-//W3C//DTD SVG 20010904//EN"
 "http://www.w3.org/TR/2001/REC-SVG-20010904/DTD/svg10.dtd">
<svg version="1.0" xmlns="http://www.w3.org/2000/svg"
 width="1455.000000pt" height="1455.000000pt" viewBox="0 0 1455.000000 1455.000000"
 preserveAspectRatio="xMidYMid meet">
<metadata>
Created by potrace 1.14, written by Peter Selinger 2001-2017
</metadata>
<g transform="translate(0.000000,1455.000000) scale(0.100000,-0.100000)"
fill="#000000" stroke="none">
<path d="M5342 11655 c-51 -12 -103 -27 -115 -32 -12 -6 -56 -25 -97 -44 -131
-60 -274 -178 -367 -304 -39 -53 -73 -105 -73 -113 0 -5 -12 -30 -26 -56 -14
-25 -23 -46 -19 -46 4 0 3 -6 -3 -12 -8 -10 -26 -64 -37 -108 0 -3 -4 -14 -8
-25 -18 -54 -21 -158 -24 -902 l-4 -803 1214 0 1215 0 0 1235 0 1236 -781 -2
c-772 -2 -783 -2 -875 -24z"/>
<path d="M7499 11673 c-1 -11 -1 -2412 0 -2440 l1 -23 1213 0 1213 0 -1 73 c0
39 -4 77 -8 84 -4 6 -4 14 0 16 10 6 10 428 1 443 -4 6 -4 14 0 18 10 11 10
589 0 603 -5 6 -5 14 -1 16 5 3 8 74 7 159 -1 137 -4 174 -19 269 -10 55 -48
167 -81 232 -101 203 -263 363 -460 457 -94 45 -188 74 -210 66 -9 -3 -12 -1
-9 4 3 6 -4 10 -17 11 -13 0 -32 3 -43 7 -30 9 -1585 14 -1586 5z"/>
<path d="M4573 7933 c2 -417 6 -769 10 -783 4 -14 9 -38 13 -55 11 -58 46
-155 55 -155 6 0 7 -5 4 -10 -8 -12 52 -123 108 -200 48 -65 194 -210 212
-210 7 0 15 -6 18 -14 3 -7 56 -39 119 -70 114 -57 227 -92 328 -102 30 -3 60
-7 67 -9 7 -2 15 0 18 6 4 5 12 6 18 2 19 -12 387 -10 387 2 0 7 3 6 8 0 4 -7
187 -10 533 -10 l526 0 1 1183 0 1182 -1214 0 -1214 0 3 -757z"/>
<path d="M7499 8688 c-1 -4 -1 -2295 0 -2333 l1 -30 744 0 c410 0 748 3 751 7
4 4 13 4 20 1 23 -8 146 15 231 43 83 28 205 89 264 133 92 68 163 138 154
152 -4 7 -3 9 4 5 16 -9 104 111 152 208 50 101 92 243 94 318 0 32 3 58 6 58
8 0 5 784 -3 797 -4 6 -4 14 0 16 5 3 8 144 8 314 l0 308 -1213 3 c-666 1
-1212 1 -1213 0z"/>
<path d="M2405 6116 c-60 -27 -115 -110 -115 -173 0 -78 52 -163 117 -189 105
-44 233 29 253 144 8 49 -7 119 -34 155 -49 67 -148 95 -221 63z"/>
<path d="M442 5040 l0 -1001 527 3 c505 4 529 5 606 26 159 44 291 130 366
238 37 55 74 151 89 235 12 65 15 205 6 248 -34 155 -80 221 -249 362 -5 4 3
25 17 47 64 102 90 276 59 406 -42 183 -182 334 -373 404 l-75 27 -486 3 -487
3 0 -1001z m970 578 c133 -79 126 -234 -16 -326 l-41 -27 -270 -3 -271 -3 1
196 0 196 275 -3 275 -3 47 -27z m81 -748 c72 -25 160 -92 173 -133 14 -40 4
-119 -20 -173 -53 -116 -130 -134 -542 -131 l-289 2 -1 225 c0 124 2 229 4
233 2 5 140 7 306 5 286 -4 304 -5 369 -28z"/>
<path d="M2950 5111 c0 -634 3 -939 11 -958 15 -40 48 -73 94 -94 99 -46 221
2 254 100 7 23 11 155 11 407 l0 374 265 0 c281 0 309 4 354 49 38 38 55 83
54 147 -1 88 -38 150 -106 179 -29 12 -88 15 -302 15 l-265 0 0 160 0 160 408
0 c373 0 410 2 447 19 48 22 69 44 90 94 28 68 15 162 -32 217 -51 61 -38 60
-689 60 l-594 0 0 -929z"/>
<path d="M8373 6021 c-83 -38 -123 -158 -86 -255 20 -52 39 -74 84 -96 32 -17
65 -19 299 -20 145 0 265 -2 267 -4 1 -1 3 -331 3 -732 1 -827 -3 -785 81
-841 36 -24 53 -28 108 -28 57 0 72 4 108 30 80 56 76 20 76 846 l1 729 230 0
c127 0 247 5 267 10 69 19 119 99 119 190 0 63 -27 119 -77 157 l-36 28 -701
2 c-672 3 -703 2 -743 -16z"/>
<path d="M12951 6022 c-19 -9 -48 -34 -65 -55 l-31 -39 -3 -866 c-2 -597 0
-879 8 -904 6 -22 27 -51 52 -72 88 -75 225 -54 282 44 20 34 21 54 26 486 l5
451 28 40 c80 115 290 147 408 61 73 -53 72 -47 74 -548 1 -410 3 -448 20
-480 23 -45 61 -78 105 -90 102 -29 192 10 231 99 18 41 19 72 19 490 -1 501
-5 546 -67 663 -47 90 -99 147 -186 205 -104 70 -195 97 -332 97 -101 1 -115
-1 -168 -28 -39 -19 -71 -44 -98 -78 l-39 -50 0 224 c0 195 -3 228 -19 263
-10 22 -27 48 -37 57 -54 47 -151 61 -213 30z"/>
<path d="M4485 4918 c1 -817 -2 -769 62 -831 93 -88 263 -45 300 76 6 22 10
227 11 558 0 288 1 530 1 537 1 15 479 16 540 0 59 -15 107 -66 120 -127 7
-31 11 -220 11 -501 1 -283 5 -461 11 -478 14 -37 47 -70 93 -94 56 -29 143
-21 192 17 75 57 74 44 74 653 l0 542 273 -2 272 -3 41 -27 c77 -50 79 -59 82
-428 5 -687 3 -651 36 -694 75 -99 227 -99 302 0 l29 37 3 493 c2 409 0 504
-12 564 -47 223 -202 384 -420 434 -59 14 -192 16 -1044 16 l-977 0 0 -742z"/>
<path d="M10271 5644 c-303 -63 -498 -254 -577 -565 -22 -88 -27 -351 -9 -444
58 -296 254 -513 530 -587 91 -25 259 -35 308 -19 78 26 127 95 127 181 0 115
-89 200 -208 200 -121 0 -257 51 -312 118 l-30 37 537 5 538 5 0 145 c-1 241
-21 362 -83 508 -122 285 -355 437 -661 431 -53 -1 -125 -8 -160 -15z m312
-397 c61 -26 97 -56 131 -111 31 -49 66 -135 66 -163 0 -10 -69 -13 -365 -13
l-365 0 6 28 c35 141 128 234 269 268 68 16 211 11 258 -9z"/>
<path d="M11965 5643 c-149 -31 -269 -98 -376 -210 -101 -106 -167 -224 -205
-368 -29 -109 -26 -371 4 -484 60 -218 195 -392 375 -479 117 -58 198 -75 353
-78 158 -3 261 18 379 75 133 65 177 117 177 207 1 117 -99 214 -204 197 -18
-3 -61 -18 -95 -35 -93 -45 -151 -57 -261 -54 -239 7 -359 126 -378 375 -21
273 140 472 385 477 84 2 139 -11 226 -52 116 -55 207 -27 264 81 42 79 19
185 -52 239 -44 34 -148 81 -222 102 -83 23 -280 27 -370 7z"/>
<path d="M2405 5617 c-46 -21 -93 -73 -105 -115 -13 -46 -12 -1293 1 -1338 5
-17 23 -45 40 -63 104 -110 279 -66 316 79 5 19 9 321 8 670 -1 634 -1 635
-23 680 -30 61 -79 93 -150 97 -34 2 -69 -2 -87 -10z"/>
<path d="M7312 5333 c-133 -65 -132 -283 1 -344 38 -17 68 -19 310 -19 291 0
296 1 350 58 86 90 59 249 -52 307 -44 22 -562 21 -609 -2z"/>
<path d="M304 3821 c-2 -2 -4 -31 -4 -63 0 -48 3 -58 18 -58 25 0 14102 -1
14140 0 l32 0 0 60 c0 33 -3 60 -7 61 -25 3 -14175 3 -14179 0z"/>
</g>
</svg>
